<svg xmlns="http://www.w3.org/2000/svg" width="30" height="8.789" fill="#000" xmlns:v="https://vecta.io/nano"><path d="M6.191 0H0v1.758h6.191a.88.88 0 0 1 .879.879.88.88 0 0 1-.879.879H2.637A2.64 2.64 0 0 0 0 6.152v2.637h1.758V6.152a.88.88 0 0 1 .879-.879h3.555a2.64 2.64 0 0 0 2.637-2.637A2.64 2.64 0 0 0 6.191 0zm9.248 0a2.64 2.64 0 0 0-2.637 2.637v3.516a.88.88 0 0 1-.879.879H7.949V8.79h3.975a2.64 2.64 0 0 0 2.637-2.637V2.637a.88.88 0 0 1 .879-.879h3.975V0zm12.803 5.273V1.758A1.76 1.76 0 0 0 26.484 0c-.333 0-.657.094-.938.271L19.98 3.787a1.75 1.75 0 0 0-.82 1.487 1.76 1.76 0 0 0 1.758 1.758h5.566V8.79h1.758V7.031H30V5.273zm-1.758 0h-5.566l5.566-3.515z"/></svg>