<svg xmlns="http://www.w3.org/2000/svg" width="29.971" height="8.807" fill="none" xmlns:v="https://vecta.io/nano"><path d="M6.191.009H0v1.758h6.191a.88.88 0 0 1 .879.879.88.88 0 0 1-.879.879H2.637A2.64 2.64 0 0 0 0 6.161v2.637h1.758V6.161a.88.88 0 0 1 .879-.879h3.555a2.64 2.64 0 0 0 2.637-2.637A2.64 2.64 0 0 0 6.191.009zm9.248 0a2.64 2.64 0 0 0-2.637 2.637v3.516a.88.88 0 0 1-.879.879H7.949v1.758h3.975a2.64 2.64 0 0 0 2.637-2.637V2.645a.88.88 0 0 1 .879-.879h3.975V.009z" fill="#000"/><path d="M27.538 8.607h-7.335V7.205h7.335c.527 0 .957-.471.957-1.051s-.429-1.051-.957-1.051h-5.695c-.904 0-1.64-.808-1.64-1.801V.2h8.93v1.401h-7.654v1.702c0 .221.163.4.364.4h5.695c1.231 0 2.233 1.1 2.233 2.452s-1.001 2.452-2.233 2.452z" fill="#e4dfde"/><path d="M20.003 0h9.33v1.801h-7.654v1.502c0 .128.091.2.164.2h5.695c1.359 0 2.433 1.207 2.433 2.652s-1.074 2.652-2.433 2.652h-7.535V7.005h7.535c.4 0 .757-.364.757-.851s-.357-.851-.757-.851h-5.695c-1.032 0-1.84-.915-1.84-2.001zm.4.4v2.903c0 .901.663 1.601 1.44 1.601h5.695c.655 0 1.157.579 1.157 1.251s-.502 1.251-1.157 1.251h-7.135v1.001h7.135c1.103 0 2.032-.992 2.032-2.252s-.929-2.252-2.032-2.252H24.72h-2.877c-.329 0-.564-.287-.564-.6V1.401h7.654V.4z" fill="#000" fill-rule="evenodd"/></svg>